<?xml version="1.0" standalone="no"?>
<!DOCTYPE svg PUBLIC "-//W3C//DTD SVG 20010904//EN"
 "http://www.w3.org/TR/2001/REC-SVG-20010904/DTD/svg10.dtd">
<svg version="1.0" xmlns="http://www.w3.org/2000/svg"
 width="256.000000pt" height="256.000000pt" viewBox="0 0 256.000000 256.000000"
 preserveAspectRatio="xMidYMid meet">

<g transform="translate(0.000000,256.000000) scale(0.100000,-0.100000)"
fill="#000000" stroke="none">
<path d="M1215 1904 c-44 -22 -854 -833 -871 -871 -32 -74 -7 -152 65 -200 37
-25 91 -30 138 -13 15 6 187 169 380 363 l353 352 362 -362 c392 -390 385
-385 474 -369 47 9 111 73 120 120 16 90 27 77 -434 538 -234 235 -441 435
-458 443 -41 19 -91 19 -129 -1z"/>
</g>
</svg>
